<svg xmlns="http://www.w3.org/2000/svg" x="0px" y="0px"
width="80" height="80"
viewBox="0 0 172 172"
style="fill: #000000"><g fill="none" fill-rule="nonzero" stroke="none" stroke-width="1" stroke-linecap="butt" stroke-linejoin="miter" stroke-miterlimit="10" stroke-dasharray="" stroke-dashoffset="0" font-family="none" font-weight="none" font-size="none" text-anchor="none" style="mix-blend-mode: normal"><path d="M 0 172 v -172 h 172 v 172 z" fill="none"></path><g fill="#cc33cc"><path d="M 21.5 17.2 c -4.7 0 -8.6 3.9 -8.6 8.6 c 0 4.7 3.9 8.6 8.6 8.6 c 4.7 0 8.6 -3.9 8.6 -8.6 c 0 -1.3 -0.3 -2.5 -0.8 -3.7 c 7.1 1.9 12.7 7.8 14.1 15.3 l 16.1 91.6 c 1 5.8 5.9 10.1 11.6 10.6 c -1.4 1.8 -2.3 4.1 -2.3 6.6 c 0 5.9 4.8 10.8 10.8 10.8 c 5.9 0 10.8 -4.8 10.8 -10.8 c 0 -2.4 -0.8 -4.6 -2.2 -6.5 h 28.1 c -1.4 1.8 -2.2 4 -2.2 6.5 c 0 5.9 4.8 10.8 10.8 10.8 c 5.9 0 10.8 -4.8 10.8 -10.8 c 0 -2.4 -0.8 -4.6 -2.2 -6.5 h 10.8 v -4.3 h -71.9 c -4.2 0 -7.7 -3 -8.5 -7.1 l -2.9 -16.5 h 68.8 c 6.9 0 13 -4.8 14.6 -11.5 l 11.1 -46.3 l -106.3 -8.7 l -1.5 -8.5 c -2 -11.3 -11.8 -19.6 -23.3 -19.6 z M 21.5 21.5 c 2.4 0 4.3 1.9 4.3 4.3 c 0 2.4 -1.9 4.3 -4.3 4.3 c -2.4 0 -4.3 -1.9 -4.3 -4.3 c 0 -2.4 1.9 -4.3 4.3 -4.3 z M 49.8 49.7 l 100.1 8.2 l -9.9 41.4 c -1.2 4.8 -5.5 8.2 -10.4 8.2 h -69.5 z M 73.1 62.4 c -1.2 0 -2.1 1 -2.1 2.1 c 0 1.2 1 2.1 2.1 2.1 c 1.2 0 2.1 -1 2.1 -2.1 c 0 -1.2 -1 -2.1 -2.1 -2.1 z M 86 62.4 c -1.2 0 -2.1 1 -2.1 2.1 c 0 1.2 1 2.1 2.1 2.1 c 1.2 0 2.1 -1 2.1 -2.1 c 0 -1.2 -1 -2.1 -2.1 -2.1 z M 98.9 62.4 c -1.2 0 -2.1 1 -2.1 2.1 c 0 1.2 1 2.1 2.1 2.1 c 1.2 0 2.1 -1 2.1 -2.1 c 0 -1.2 -1 -2.1 -2.1 -2.1 z M 111.8 62.4 c -1.2 0 -2.1 1 -2.1 2.1 c 0 1.2 1 2.1 2.1 2.1 c 1.2 0 2.1 -1 2.1 -2.1 c 0 -1.2 -1 -2.1 -2.1 -2.1 z M 124.7 62.4 c -1.2 0 -2.1 1 -2.1 2.1 c 0 1.2 1 2.1 2.1 2.1 c 1.2 0 2.1 -1 2.1 -2.1 c 0 -1.2 -1 -2.1 -2.1 -2.1 z M 73.1 71 c -1.2 0 -2.1 1 -2.1 2.1 c 0 1.2 1 2.1 2.1 2.1 c 1.2 0 2.1 -1 2.1 -2.1 c 0 -1.2 -1 -2.1 -2.1 -2.1 z M 86 71 c -1.2 0 -2.1 1 -2.1 2.1 c 0 1.2 1 2.1 2.1 2.1 c 1.2 0 2.1 -1 2.1 -2.1 c 0 -1.2 -1 -2.1 -2.1 -2.1 z M 98.9 71 c -1.2 0 -2.1 1 -2.1 2.1 c 0 1.2 1 2.1 2.1 2.1 c 1.2 0 2.1 -1 2.1 -2.1 c 0 -1.2 -1 -2.1 -2.1 -2.1 z M 111.8 71 c -1.2 0 -2.1 1 -2.1 2.1 c 0 1.2 1 2.1 2.1 2.1 c 1.2 0 2.1 -1 2.1 -2.1 c 0 -1.2 -1 -2.1 -2.1 -2.1 z M 124.7 71 c -1.2 0 -2.1 1 -2.1 2.1 c 0 1.2 1 2.1 2.1 2.1 c 1.2 0 2.1 -1 2.1 -2.1 c 0 -1.2 -1 -2.1 -2.1 -2.1 z M 73.1 79.5 c -1.2 0 -2.1 1 -2.1 2.1 c 0 1.2 1 2.1 2.1 2.1 c 1.2 0 2.1 -1 2.1 -2.1 c 0 -1.2 -1 -2.1 -2.1 -2.1 z M 86 79.5 c -1.2 0 -2.1 1 -2.1 2.1 c 0 1.2 1 2.1 2.1 2.1 c 1.2 0 2.1 -1 2.1 -2.1 c 0 -1.2 -1 -2.1 -2.1 -2.1 z M 98.9 79.5 c -1.2 0 -2.1 1 -2.1 2.1 c 0 1.2 1 2.1 2.1 2.1 c 1.2 0 2.1 -1 2.1 -2.1 c 0 -1.2 -1 -2.1 -2.1 -2.1 z M 111.8 79.5 c -1.2 0 -2.1 1 -2.1 2.1 c 0 1.2 1 2.1 2.1 2.1 c 1.2 0 2.1 -1 2.1 -2.1 c 0 -1.2 -1 -2.1 -2.1 -2.1 z M 124.7 79.5 c -1.2 0 -2.1 1 -2.1 2.1 c 0 1.2 1 2.1 2.1 2.1 c 1.2 0 2.1 -1 2.1 -2.1 c 0 -1.2 -1 -2.1 -2.1 -2.1 z M 73.1 88.2 c -1.2 0 -2.1 1 -2.1 2.1 c 0 1.2 1 2.1 2.1 2.1 c 1.2 0 2.1 -1 2.1 -2.1 c 0 -1.2 -1 -2.1 -2.1 -2.1 z M 86 88.2 c -1.2 0 -2.1 1 -2.1 2.1 c 0 1.2 1 2.1 2.1 2.1 c 1.2 0 2.1 -1 2.1 -2.1 c 0 -1.2 -1 -2.1 -2.1 -2.1 z M 98.9 88.2 c -1.2 0 -2.1 1 -2.1 2.1 c 0 1.2 1 2.1 2.1 2.1 c 1.2 0 2.1 -1 2.1 -2.1 c 0 -1.2 -1 -2.1 -2.1 -2.1 z M 111.8 88.2 c -1.2 0 -2.1 1 -2.1 2.1 c 0 1.2 1 2.1 2.1 2.1 c 1.2 0 2.1 -1 2.1 -2.1 c 0 -1.2 -1 -2.1 -2.1 -2.1 z M 124.7 88.2 c -1.2 0 -2.1 1 -2.1 2.1 c 0 1.2 1 2.1 2.1 2.1 c 1.2 0 2.1 -1 2.1 -2.1 c 0 -1.2 -1 -2.1 -2.1 -2.1 z M 73.1 96.8 c -1.2 0 -2.1 1 -2.1 2.1 c 0 1.2 1 2.1 2.1 2.1 c 1.2 0 2.1 -1 2.1 -2.1 c 0 -1.2 -1 -2.1 -2.1 -2.1 z M 86 96.8 c -1.2 0 -2.1 1 -2.1 2.1 c 0 1.2 1 2.1 2.1 2.1 c 1.2 0 2.1 -1 2.1 -2.1 c 0 -1.2 -1 -2.1 -2.1 -2.1 z M 98.9 96.8 c -1.2 0 -2.1 1 -2.1 2.1 c 0 1.2 1 2.1 2.1 2.1 c 1.2 0 2.1 -1 2.1 -2.1 c 0 -1.2 -1 -2.1 -2.1 -2.1 z M 111.8 96.8 c -1.2 0 -2.1 1 -2.1 2.1 c 0 1.2 1 2.1 2.1 2.1 c 1.2 0 2.1 -1 2.1 -2.1 c 0 -1.2 -1 -2.1 -2.1 -2.1 z M 124.7 96.8 c -1.2 0 -2.1 1 -2.1 2.1 c 0 1.2 1 2.1 2.1 2.1 c 1.2 0 2.1 -1 2.1 -2.1 c 0 -1.2 -1 -2.1 -2.1 -2.1 z M 79.5 139.8 c 3.6 0 6.5 2.9 6.5 6.5 c 0 3.6 -2.9 6.5 -6.5 6.5 c -3.6 0 -6.5 -2.9 -6.5 -6.5 c 0 -3.6 2.9 -6.5 6.5 -6.5 z M 124.7 139.8 c 3.6 0 6.5 2.9 6.5 6.5 c 0 3.6 -2.9 6.5 -6.5 6.5 c -3.6 0 -6.5 -2.9 -6.5 -6.5 c 0 -3.6 2.9 -6.5 6.5 -6.5 z M 79.5 144.1 c -1.2 0 -2.1 1 -2.1 2.1 c 0 1.2 1 2.1 2.1 2.1 c 1.2 0 2.1 -1 2.1 -2.1 c 0 -1.2 -1 -2.1 -2.1 -2.1 z M 124.7 144.1 c -1.2 0 -2.1 1 -2.1 2.1 c 0 1.2 1 2.1 2.1 2.1 c 1.2 0 2.1 -1 2.1 -2.1 c 0 -1.2 -1 -2.1 -2.1 -2.1 z"></path></g></g></svg>