<?xml version="1.0" standalone="no"?>
<!DOCTYPE svg PUBLIC "-//W3C//DTD SVG 20010904//EN"
 "http://www.w3.org/TR/2001/REC-SVG-20010904/DTD/svg10.dtd">
<svg version="1.0" xmlns="http://www.w3.org/2000/svg"
 width="314.000000pt" height="314.000000pt" viewBox="0 0 314.000000 314.000000"
 preserveAspectRatio="xMidYMid meet">
<metadata>
Created by potrace 1.14, written by Peter Selinger 2001-2017
</metadata>
<g transform="translate(0.000000,314.000000) scale(0.100000,-0.100000)"
fill="#000000" stroke="none">
<path d="M734 3115 c-16 -14 -60 -52 -99 -83 -38 -31 -72 -60 -75 -63 -3 -3
-125 -105 -271 -227 l-266 -221 0 -1258 0 -1258 551 1 c303 0 580 4 616 8 400
46 769 268 982 591 65 98 67 101 129 124 322 121 610 403 730 716 63 162 84
284 82 463 -4 307 -120 582 -344 816 -195 205 -464 346 -751 396 -90 16 -177
18 -679 19 l-575 2 -30 -26z m1176 -319 c236 -28 488 -165 639 -348 74 -88
154 -244 182 -353 28 -105 30 -309 5 -405 -46 -177 -119 -302 -254 -438 -57
-57 -105 -102 -107 -100 -2 2 -5 57 -6 123 -5 229 -51 400 -161 588 -199 345
-573 590 -978 643 -25 3 -54 8 -65 9 -11 2 -25 4 -30 4 -7 1 -10 53 -9 144 1
78 2 142 3 142 23 5 736 -4 781 -9z m-1144 -1217 c1 -439 -1 -609 -10 -619
-13 -18 -363 -310 -371 -310 -3 0 -5 345 -5 768 l0 767 193 0 192 0 1 -606z
m464 585 c14 -3 36 -8 49 -11 146 -27 357 -148 480 -274 99 -102 190 -262 227
-399 27 -100 28 -312 2 -417 -11 -46 -25 -83 -31 -84 -7 0 -21 -3 -32 -6 -30
-8 -795 -12 -796 -5 -3 18 -5 1198 -2 1204 4 7 51 3 103 -8z m500 -1541 c0
-18 -150 -128 -229 -167 -72 -36 -205 -84 -260 -92 -18 -3 -43 -8 -55 -11 -11
-2 -106 -6 -211 -8 l-189 -4 24 22 c32 29 257 216 293 244 27 21 36 21 327 21
165 0 300 -2 300 -5z"/>
</g>
</svg>
